<svg width="152" height="152" viewBox="0 0 152 152" fill="none" xmlns="http://www.w3.org/2000/svg">
<rect width="152" height="152" fill="#EE3643"/>
<path fill-rule="evenodd" clip-rule="evenodd" d="M35.8913 35.0002C33.2296 35.0002 33 37.8102 33 37.8102V59.0847C33 63.1278 36.9912 63.0002 36.9912 63.0002H49.3745C52.0349 63.0002 51.5757 65.0556 51.5757 65.0556C51.5757 65.0556 48.1811 82.9711 47.8154 86.002C47.4483 89.0356 45.2472 90.9649 45.2472 90.9649C45.2472 90.9649 42.3119 92.6187 41.1199 93.2618C39.9279 93.9049 39.9279 97.0002 39.9279 97.0002H83V95.2819C83 93.2618 73.4977 90.9649 69.9217 90.5972C66.3444 90.2309 67.0785 87.8403 67.0785 87.8403L68.5455 77.0924H72.6728L74.2319 66.2509H70.1046L70.5597 63.0002H82.3958C90.3768 62.1726 96 56.6969 96 56.6969V40.1585C89.6715 35.657 79.7354 35.0002 79.7354 35.0002H35.8913ZM115.541 45.0003H134.085C134.876 45.0003 136 46.671 136 48.5003C136 50.3297 134.876 52.0003 134.085 52.0003H115.541C114.688 55.0497 112.693 57.0003 110.369 57.0003H100V40.0003H110.369C112.694 40.0003 114.688 41.951 115.541 45.0003ZM42.6004 119C40 119 40 116.176 40 116.176V101.019H83V116.268C83 118.747 80.2144 119 80.2144 119H42.6004ZM82 42.523V42.4772C82 41.6648 81.3807 41.0001 80.6237 41.0001H39.3763C38.6193 41.0001 38 41.6648 38 42.4772V42.523C38 43.3354 38.6193 44.0001 39.3763 44.0001H80.6237C81.3807 44.0001 82 43.3354 82 42.523Z" fill="white"/>
</svg>
