<svg width="14" height="12" viewBox="0 0 14 12" fill="none" xmlns="http://www.w3.org/2000/svg">
<path d="M2 7.99999V12H6V7.99999H8V12H12V7.99999L7 3.51599L2 7.99999Z" fill="#C1C6CE"/>
<path d="M13.8311 6.365L12.0001 4.751V0H10.0001V2.987L7.3321 0.635C7.3121 0.618 7.2891 0.612 7.2681 0.598C7.24306 0.579705 7.21626 0.56396 7.1881 0.551C7.15721 0.540195 7.12541 0.532163 7.0931 0.527C7.0621 0.521 7.0321 0.515 7.0001 0.515C6.9691 0.515 6.9391 0.521 6.9081 0.527C6.87563 0.531919 6.84378 0.5403 6.8131 0.552C6.7851 0.563 6.7601 0.581 6.7331 0.598C6.7121 0.612 6.6881 0.618 6.6691 0.635L0.171098 6.365C0.0163621 6.50291 -0.0374732 6.72187 0.0356695 6.9158C0.108812 7.10974 0.293829 7.23862 0.501098 7.24C0.623029 7.24035 0.740833 7.19586 0.832098 7.115L7.0001 1.677L13.1691 7.115C13.3779 7.27913 13.6785 7.25178 13.8543 7.05265C14.0301 6.85352 14.0199 6.55183 13.8311 6.365Z" fill="#C1C6CE"/>
</svg>
