<svg width="35" height="35" viewBox="0 0 35 35" fill="none" xmlns="http://www.w3.org/2000/svg">
<g filter="url(#filter0_d)">
<path fill-rule="evenodd" clip-rule="evenodd" d="M5 13.3542C5 6.45125 10.597 0.854248 17.5 0.854248C24.403 0.854248 30 6.45125 30 13.3542C30 20.2572 24.403 25.8542 17.5 25.8542C10.597 25.8542 5 20.2572 5 13.3542ZM26 13.3542C26 8.66725 22.187 4.85425 17.5 4.85425C12.813 4.85425 9 8.66725 9 13.3542C9 18.0412 12.813 21.8542 17.5 21.8542C22.187 21.8542 26 18.0412 26 13.3542Z" fill="#C5C5C5"/>
<path d="M17.5 0.354248C10.3209 0.354248 4.5 6.17511 4.5 13.3542H5.5C5.5 6.72739 10.8731 1.35425 17.5 1.35425V0.354248ZM30.5 13.3542C30.5 6.17511 24.6791 0.354248 17.5 0.354248V1.35425C24.1269 1.35425 29.5 6.72739 29.5 13.3542H30.5ZM17.5 26.3542C24.6791 26.3542 30.5 20.5334 30.5 13.3542H29.5C29.5 19.9811 24.1269 25.3542 17.5 25.3542V26.3542ZM4.5 13.3542C4.5 20.5334 10.3209 26.3542 17.5 26.3542V25.3542C10.8731 25.3542 5.5 19.9811 5.5 13.3542H4.5ZM17.5 5.35425C21.9109 5.35425 25.5 8.94339 25.5 13.3542H26.5C26.5 8.39111 22.4631 4.35425 17.5 4.35425V5.35425ZM9.5 13.3542C9.5 8.94339 13.0891 5.35425 17.5 5.35425V4.35425C12.5369 4.35425 8.5 8.39111 8.5 13.3542H9.5ZM17.5 21.3542C13.0891 21.3542 9.5 17.7651 9.5 13.3542H8.5C8.5 18.3174 12.5369 22.3542 17.5 22.3542V21.3542ZM25.5 13.3542C25.5 17.7651 21.9109 21.3542 17.5 21.3542V22.3542C22.4631 22.3542 26.5 18.3174 26.5 13.3542H25.5Z" fill="black"/>
</g>
<defs>
<filter id="filter0_d" x="0.5" y="0.354248" width="34" height="34" filterUnits="userSpaceOnUse" color-interpolation-filters="sRGB">
<feFlood flood-opacity="0" result="BackgroundImageFix"/>
<feColorMatrix in="SourceAlpha" type="matrix" values="0 0 0 0 0 0 0 0 0 0 0 0 0 0 0 0 0 0 127 0"/>
<feOffset dy="4"/>
<feGaussianBlur stdDeviation="2"/>
<feColorMatrix type="matrix" values="0 0 0 0 0 0 0 0 0 0 0 0 0 0 0 0 0 0 0.25 0"/>
<feBlend mode="normal" in2="BackgroundImageFix" result="effect1_dropShadow"/>
<feBlend mode="normal" in="SourceGraphic" in2="effect1_dropShadow" result="shape"/>
</filter>
</defs>
</svg>
